<?xml version="1.0" encoding="utf-8"?>
<!-- Generator: Adobe Illustrator 24.1.2, SVG Export Plug-In . SVG Version: 6.00 Build 0)  -->
<svg version="1.1" xmlns="http://www.w3.org/2000/svg" xmlns:xlink="http://www.w3.org/1999/xlink" x="0px" y="0px"
	 viewBox="0 0 800 400" style="enable-background:new 0 0 800 400;" xml:space="preserve">
<style type="text/css">
	.st0{fill:#414042;stroke:#808285;stroke-width:10;stroke-miterlimit:10;}
	.st1{fill:#414042;stroke:#808285;stroke-width:6;stroke-miterlimit:10;}
</style>
<g id="Layer_3">
	<g>
		<ellipse class="st0" cx="400.19" cy="110.42" rx="87.69" ry="35.82"/>
		<path class="st0" d="M311.61,128.53v56.69c0,0,73.95,45.83,177.17,0v-56.69C488.78,128.53,400.96,178.21,311.61,128.53z"/>
		<path class="st0" d="M311.22,188.65v56.69c0,0,73.95,45.83,177.17,0v-56.69C488.39,188.65,400.58,238.33,311.22,188.65z"/>
		<path class="st0" d="M311.22,248.34v56.69c0,0,73.95,45.83,177.17,0v-56.69C488.39,248.34,400.58,298.03,311.22,248.34z"/>
	</g>
</g>
<g id="Layer_4">
	<g>
		<ellipse class="st1" cx="496.1" cy="235.17" rx="45.54" ry="18.6"/>
		<path class="st1" d="M450.1,244.57v29.44c0,0,38.4,23.8,92,0v-29.44C542.1,244.57,496.5,270.37,450.1,244.57z"/>
		<path class="st1" d="M449.9,275.79v29.44c0,0,38.4,23.8,92,0v-29.44C541.9,275.79,496.3,301.59,449.9,275.79z"/>
		<path class="st1" d="M449.9,306.79v29.44c0,0,38.4,23.8,92,0v-29.44C541.9,306.79,496.3,332.59,449.9,306.79z"/>
	</g>
</g>
</svg>
