<?xml version="1.0" encoding="utf-8"?>
<!-- Generator: Adobe Illustrator 24.1.2, SVG Export Plug-In . SVG Version: 6.00 Build 0)  -->
<svg version="1.1" xmlns="http://www.w3.org/2000/svg" xmlns:xlink="http://www.w3.org/1999/xlink" x="0px" y="0px"
	 viewBox="0 0 800 400" style="enable-background:new 0 0 800 400;" xml:space="preserve">
<style type="text/css">
	.st0{fill:#FFFFFF;stroke:#000000;stroke-width:10;stroke-miterlimit:10;}
	.st1{fill:#FFFFFF;}
	.st2{fill:none;stroke:#000000;stroke-width:10;stroke-miterlimit:10;}
	.st3{fill:#414042;stroke:#808285;stroke-width:6;stroke-miterlimit:10;}
</style>
<g id="Layer_4">
	<g>
		<rect x="214.22" y="89.83" class="st0" width="371.55" height="220.34"/>
		<g>
			<path class="st1" d="M229.22,89.83c-8.25,0-9.46,3.86-2.69,8.57l161.55,112.54c6.77,4.72,17.84,4.7,24.6-0.02l160.8-112.49
				c6.76-4.73,5.54-8.6-2.71-8.6H229.22z"/>
			<path class="st2" d="M229.22,89.83c-8.25,0-9.46,3.86-2.69,8.57l161.55,112.54c6.77,4.72,17.84,4.7,24.6-0.02l160.8-112.49
				c6.76-4.73,5.54-8.6-2.71-8.6H229.22z"/>
		</g>
		<line class="st0" x1="349.25" y1="183.89" x2="214.22" y2="310.17"/>
		<line class="st0" x1="449.51" y1="183.89" x2="585.78" y2="310.17"/>
	</g>
</g>
<g id="Layer_3">
	<g>
		<ellipse class="st3" cx="586.1" cy="225.17" rx="45.54" ry="18.6"/>
		<path class="st3" d="M540.1,234.57v29.44c0,0,38.4,23.8,92,0v-29.44C632.1,234.57,586.5,260.37,540.1,234.57z"/>
		<path class="st3" d="M539.9,265.79v29.44c0,0,38.4,23.8,92,0v-29.44C631.9,265.79,586.3,291.59,539.9,265.79z"/>
		<path class="st3" d="M539.9,296.79v29.44c0,0,38.4,23.8,92,0v-29.44C631.9,296.79,586.3,322.59,539.9,296.79z"/>
	</g>
</g>
</svg>
