<?xml version="1.0" encoding="utf-8"?>
<!-- Generator: Adobe Illustrator 24.1.2, SVG Export Plug-In . SVG Version: 6.00 Build 0)  -->
<svg version="1.1" xmlns="http://www.w3.org/2000/svg" xmlns:xlink="http://www.w3.org/1999/xlink" x="0px" y="0px"
	 viewBox="0 0 800 400" style="enable-background:new 0 0 800 400;" xml:space="preserve">
<style type="text/css">
	.st0{fill:#FFFFFF;stroke:#000000;stroke-miterlimit:10;}
	.st1{fill:none;}
	.st2{font-family:'MyriadPro-Regular';}
	.st3{font-size:65px;}
	.st4{fill:#414042;stroke:#808285;stroke-width:6;stroke-miterlimit:10;}
</style>
<g id="Layer_2">
	<g>
		<g>
			<path d="M400,31.6c-93,0-168.4,75.4-168.4,168.4S307,368.4,400,368.4S568.4,293,568.4,200S493,31.6,400,31.6z M299.74,313.62
				c-10.26-3.95-13.79-13.85-13.79-13.85h13.79V313.62z M299.74,279.81h-27.33c-17.92-23.09-23.44-70.04-23.44-70.04h50.76V279.81z
				 M299.74,190.2h-50.76c0,0,5.52-46.95,23.44-70.04h27.33V190.2z M299.74,100.2h-13.79c0,0,3.53-9.89,13.79-13.85V100.2z
				 M389.2,351.14c0,0-26.4,2.4-68.8-23.59v-27.79h68.8V351.14z M389.2,279.81h-68.8v-70.04h68.8V279.81z M389.2,190.2h-68.8v-70.04
				h68.8V190.2z M389.2,100.2h-68.8V72.41c42.4-25.99,68.8-23.59,68.8-23.59V100.2z M501.44,86.35
				c10.26,3.95,13.79,13.85,13.79,13.85h-13.79V86.35z M501.44,120.16h27.33c17.92,23.09,23.44,70.04,23.44,70.04h-50.76V120.16z
				 M480.78,327.56c-42.4,25.99-68.8,23.59-68.8,23.59v-51.37h68.8V327.56z M480.78,279.81h-68.8v-70.04h68.8V279.81z M480.78,190.2
				h-68.8v-70.04h68.8V190.2z M480.78,100.2h-68.8V48.83c0,0,26.4-2.4,68.8,23.59V100.2z M501.44,313.62v-13.85h13.79
				C515.23,299.77,511.7,309.66,501.44,313.62z M528.76,279.81h-27.33v-70.04h50.76C552.2,209.77,546.68,256.72,528.76,279.81z"/>
		</g>
	</g>
	<path class="st0" d="M454,230.4H347.6c-9.28,0-16.8-7.52-16.8-16.8V188c0-9.28,7.52-16.8,16.8-16.8H454c9.28,0,16.8,7.52,16.8,16.8
		v25.6C470.8,222.88,463.28,230.4,454,230.4z"/>
	<rect x="330" y="176.2" class="st1" width="140" height="48.8"/>
	<text transform="matrix(1 0 0 1 340.9481 222.3496)" class="st2 st3">DNS</text>
</g>
<g id="Layer_4">
	<g>
		<ellipse class="st4" cx="539.2" cy="260.08" rx="45.54" ry="18.6"/>
		<path class="st4" d="M493.2,269.48v29.44c0,0,38.4,23.8,92,0v-29.44C585.2,269.48,539.6,295.28,493.2,269.48z"/>
		<path class="st4" d="M493,300.7v29.44c0,0,38.4,23.8,92,0V300.7C585,300.7,539.4,326.5,493,300.7z"/>
		<path class="st4" d="M493,331.7v29.44c0,0,38.4,23.8,92,0V331.7C585,331.7,539.4,357.5,493,331.7z"/>
	</g>
</g>
</svg>
